<?xml version="1.0" encoding="UTF-8" standalone="no"?>
<svg
   xmlns:dc="http://purl.org/dc/elements/1.1/"
   xmlns:cc="http://creativecommons.org/ns#"
   xmlns:rdf="http://www.w3.org/1999/02/22-rdf-syntax-ns#"
   xmlns:svg="http://www.w3.org/2000/svg"
   xmlns="http://www.w3.org/2000/svg"
   xmlns:sodipodi="http://sodipodi.sourceforge.net/DTD/sodipodi-0.dtd"
   xmlns:inkscape="http://www.inkscape.org/namespaces/inkscape"
   width="94.483414mm"
   height="44.087631mm"
   id="svg6275"
   overflow="hidden"
   version="1.1"
   sodipodi:docname="logo.svg"
   style="overflow:hidden"
   inkscape:version="0.92.2 (5c3e80d, 2017-08-06)"
   inkscape:export-filename="C:\Users\Collin\Documents\Whey\Logos\logo.png"
   inkscape:export-xdpi="999.71075"
   inkscape:export-ydpi="999.71075">
  <metadata
     id="metadata13">
    <rdf:RDF>
      <cc:Work
         rdf:about="">
        <dc:format>image/svg+xml</dc:format>
        <dc:type
           rdf:resource="http://purl.org/dc/dcmitype/StillImage" />
        <dc:title></dc:title>
      </cc:Work>
    </rdf:RDF>
  </metadata>
  <sodipodi:namedview
     pagecolor="#ffffff"
     bordercolor="#666666"
     borderopacity="1"
     objecttolerance="10"
     gridtolerance="10"
     guidetolerance="10"
     inkscape:pageopacity="0"
     inkscape:pageshadow="2"
     inkscape:window-width="2880"
     inkscape:window-height="1541"
     id="namedview11"
     showgrid="false"
     inkscape:zoom="2.4457345"
     inkscape:cx="52.260078"
     inkscape:cy="62.664614"
     inkscape:window-x="3229"
     inkscape:window-y="-11"
     inkscape:window-maximized="1"
     inkscape:current-layer="svg6275"
     units="mm" />
  <defs
     id="defs6279" />
  <g
     id="g838"
     transform="matrix(1.4353156,0,0,1.4353156,-11.737594,73.653454)" />
  <g
     id="g862"
     transform="matrix(0.78051696,0,0,0.78051696,0.41476727,0.41477884)">
    <g
       style="font-weight:300;font-size:14.66670036px;font-family:'Yu Gothic'"
       transform="matrix(1.7319445,0,0,1.7319445,-1958.4116,-1324.1072)"
       font-size="14.6667"
       font-weight="300"
       id="text6260">
      <g
         transform="translate(0,-4)"
         id="g889">
        <path
           d="m 1158.63,849.509 h -11.84 l -6.08,14.56 h -8.86 l 16.64,-37.334 h 8.54 l 16.69,37.334 h -9.07 z m 0,0 -5.92,-14.294 -5.92,14.294 z"
           id="path6262"
           font-weight="700"
           font-size="53.3333"
           letter-spacing="7.01"
           inkscape:connector-curvature="0"
           style="font-weight:700;font-size:53.33330154px;font-family:Montserrat;letter-spacing:7.01000023" />
        <path
           d="m 1184.6,826.735 h 8.64 v 30.294 h 18.72 v 7.04 h -27.36 z"
           id="path6264"
           font-weight="700"
           font-size="53.3333"
           letter-spacing="7.01"
           inkscape:connector-curvature="0"
           style="font-weight:700;font-size:53.33330154px;font-family:Montserrat;letter-spacing:7.01000023" />
        <path
           d="m 1248.4,844.815 h 7.9 v 15.147 c -2.03,1.529 -4.38,2.702 -7.04,3.52 -2.67,0.818 -5.36,1.227 -8.06,1.227 -3.87,0 -7.36,-0.818 -10.45,-2.454 -3.09,-1.671 -5.53,-3.964 -7.31,-6.88 -1.74,-2.951 -2.61,-6.275 -2.61,-9.973 0,-3.698 0.87,-7.004 2.61,-9.92 1.78,-2.951 4.23,-5.244 7.36,-6.88 3.13,-1.671 6.65,-2.507 10.56,-2.507 3.27,0 6.24,0.551 8.91,1.654 2.67,1.102 4.91,2.702 6.72,4.8 l -5.55,5.12 c -2.66,-2.809 -5.88,-4.214 -9.65,-4.214 -2.38,0 -4.5,0.498 -6.35,1.494 -1.85,0.995 -3.29,2.4 -4.32,4.213 -1.03,1.813 -1.54,3.893 -1.54,6.24 0,2.311 0.51,4.373 1.54,6.187 1.03,1.813 2.46,3.235 4.27,4.266 1.85,0.996 3.95,1.494 6.29,1.494 2.49,0 4.73,-0.534 6.72,-1.6 z"
           id="path6266"
           font-weight="700"
           font-size="53.3333"
           letter-spacing="7.01"
           inkscape:connector-curvature="0"
           style="font-weight:700;font-size:53.33330154px;font-family:Montserrat;letter-spacing:7.01000023" />
        <path
           d="m 1300.24,857.135 v 6.934 h -28.91 v -37.334 h 28.21 v 6.934 h -19.62 v 8.106 h 17.33 v 6.72 h -17.33 v 8.64 z"
           id="path6268"
           font-weight="700"
           font-size="53.3333"
           letter-spacing="7.01"
           inkscape:connector-curvature="0"
           style="font-weight:700;font-size:53.33330154px;font-family:Montserrat;letter-spacing:7.01000023" />
        <path
           d="m 1348.41,826.735 v 37.334 h -7.09 l -18.61,-22.667 v 22.667 h -8.54 v -37.334 h 7.15 l 18.56,22.667 v -22.667 z"
           id="path6270"
           font-weight="700"
           font-size="53.3333"
           letter-spacing="7.01"
           inkscape:connector-curvature="0"
           style="font-weight:700;font-size:53.33330154px;font-family:Montserrat;letter-spacing:7.01000023" />
        <path
           d="m 1393.22,857.135 v 6.934 h -28.91 v -37.334 h 28.21 v 6.934 h -19.62 v 8.106 h 17.33 v 6.72 h -17.33 v 8.64 z"
           id="path6272"
           font-weight="700"
           font-size="53.3333"
           letter-spacing="7.01"
           inkscape:connector-curvature="0"
           style="font-weight:700;font-size:53.33330154px;font-family:Montserrat;letter-spacing:7.01000023" />
      </g>
    </g>
    <rect
       transform="matrix(1.0149214,1.0149214,-1.0149214,1.0149214,39.829796,94.660691)"
       id="rect863"
       height="8.3131466"
       width="13.043994"
       ry="0"
       rx="0"
       y="-129.59229"
       x="41.034874"
       style="overflow:hidden;fill:#ffffff;fill-opacity:1;stroke:#000000;stroke-width:0.54842049;stroke-linecap:square" />
    <path
       id="path865"
       d="m 120.31046,-12.681464 25.58309,-25.745159 -5.85069,-5.850696 -1.27284,-1.16285 -5.92411,5.612723 1.34611,1.400823 -19.43312,19.845423 z"
       inkscape:connector-curvature="0"
       style="overflow:hidden;fill:#ffffff;fill-opacity:1;stroke:#000000;stroke-width:0.54842049;stroke-linecap:square"
       transform="matrix(1.4353156,0,0,1.4353156,39.829796,94.660691)" />
    <rect
       transform="matrix(-1.0149214,-1.0149214,1.0149214,-1.0149214,39.829796,94.660691)"
       id="rect867"
       height="8.2376213"
       width="14.116391"
       ry="0"
       rx="0"
       y="109.08228"
       x="-91.634209"
       style="overflow:hidden;stroke:#000000;stroke-width:0.54842049;stroke-linecap:square" />
    <path
       id="path869"
       d="m 138.75087,-59.362599 -13.62783,13.21665 c -4.62798,5.209047 -5.33466,12.264672 -1.44247,16.338143 l 5.82492,-5.773061 c -0.82702,-2.107473 0.10375,-3.670085 2.00489,-5.418139 l 12.36856,-12.100083 c 4.54419,-4.44547 -0.69446,-11.08094 -0.85509,-11.21872 -0.34534,-0.29618 -0.0338,0.84394 -4.27298,4.95521 z"
       inkscape:connector-curvature="0"
       style="overflow:hidden;stroke:#000000;stroke-width:0.54842049;stroke-linecap:square"
       transform="matrix(1.4353156,0,0,1.4353156,39.829796,94.660691)" />
    <g
       id="flowRoot853"
       style="font-style:normal;font-variant:normal;font-weight:normal;font-stretch:normal;font-size:14.66666698px;line-height:0;font-family:'Gotham Thin';-inkscape-font-specification:'Gotham Thin, ';letter-spacing:0px;word-spacing:0px;fill:#000000;fill-opacity:1;stroke:none"
       transform="matrix(1.7319445,0,0,1.7319445,25.892437,-60.380643)"
       aria-label="BIOSYSTEMS">
      <path
         inkscape:connector-curvature="0"
         id="path861"
         style="font-size:17.33333397px;letter-spacing:6.35000134px"
         d="m 34.183526,156.21462 h 5.252 c 2.738667,0 4.333334,-1.144 4.333334,-3.13733 v -0.0347 c 0,-1.62933 -1.317334,-2.77333 -2.981334,-3.016 1.386667,-0.312 2.34,-1.36933 2.34,-2.86 v -0.0347 c 0,-0.832 -0.277333,-1.508 -0.78,-2.01067 -0.676,-0.676 -1.785333,-1.04 -3.189333,-1.04 h -4.974667 z m 0.381333,-6.30933 v -5.47733 h 4.576001 c 2.270666,0 3.605333,1.07466 3.605333,2.72133 v 0.0347 c 0,1.85466 -1.508,2.72133 -3.310667,2.72133 z m 0,5.96267 v -5.616 h 5.165334 c 1.993333,0 3.657333,0.97066 3.657333,2.808 v 0.0347 c 0,1.75067 -1.456,2.77334 -3.952,2.77334 z" />
      <path
         inkscape:connector-curvature="0"
         id="path863"
         style="font-size:17.33333397px;letter-spacing:6.35000134px"
         d="M 53.214756,156.21462 H 53.59609 V 144.08129 H 53.214756 Z" />
      <path
         inkscape:connector-curvature="0"
         id="path866"
         style="font-size:17.33333397px;letter-spacing:6.35000134px"
         d="m 69.169864,156.42262 c 3.674666,0 6.032,-2.94666 6.032,-6.25733 v -0.0347 c 0,-3.31066 -2.357334,-6.25733 -6.032,-6.25733 -3.674667,0 -6.032001,2.94667 -6.032001,6.25733 v 0.0347 c 0,3.31067 2.357334,6.25733 6.032001,6.25733 z m 0.01733,-0.34666 c -3.38,0 -5.668,-2.82534 -5.668,-5.928 v -0.0347 c 0,-3.12 2.236,-5.89333 5.633333,-5.89333 3.38,0 5.668,2.82533 5.668,5.928 v 0.0347 c 0,3.12 -2.236,5.89334 -5.633333,5.89334 z" />
      <path
         inkscape:connector-curvature="0"
         id="path868"
         style="font-size:17.33333397px;letter-spacing:6.35000134px"
         d="m 88.536116,156.38796 c 2.565334,0 4.142667,-1.42134 4.142667,-3.224 v -0.0347 c 0,-1.64667 -1.04,-2.6 -4.194667,-3.24133 -2.981333,-0.60667 -3.917333,-1.38667 -3.917333,-2.86 v -0.0347 c 0,-1.42133 1.404,-2.73867 3.536,-2.73867 1.490667,0 2.842667,0.53734 3.917334,1.352 l 0.242666,-0.312 c -1.109333,-0.84933 -2.530667,-1.38666 -4.125333,-1.38666 -2.288,0 -3.952,1.404 -3.952,3.10266 v 0.0347 c 0,1.69867 1.144,2.58267 4.142666,3.18933 3.068001,0.624 3.969334,1.42134 3.969334,2.912 v 0.0347 c 0,1.62933 -1.456,2.86 -3.726667,2.86 -1.768,0 -3.328,-0.676 -4.558667,-1.872 l -0.277333,0.27733 c 1.3,1.23067 2.946667,1.94134 4.801333,1.94134 z" />
      <path
         inkscape:connector-curvature="0"
         id="path870"
         style="font-size:17.33333397px;letter-spacing:6.35000134px"
         d="m 105.20432,156.21462 h 0.38134 v -5.07866 l 5.11333,-7.05467 h -0.45067 l -4.836,6.72533 -4.888,-6.72533 h -0.45066 l 5.13066,7.05467 z" />
      <path
         inkscape:connector-curvature="0"
         id="path872"
         style="font-size:17.33333397px;letter-spacing:6.35000134px"
         d="m 122.63195,156.38796 c 2.56534,0 4.14267,-1.42134 4.14267,-3.224 v -0.0347 c 0,-1.64667 -1.04,-2.6 -4.19467,-3.24133 -2.98133,-0.60667 -3.91733,-1.38667 -3.91733,-2.86 v -0.0347 c 0,-1.42133 1.404,-2.73867 3.536,-2.73867 1.49067,0 2.84267,0.53734 3.91733,1.352 l 0.24267,-0.312 c -1.10933,-0.84933 -2.53067,-1.38666 -4.12533,-1.38666 -2.288,0 -3.952,1.404 -3.952,3.10266 v 0.0347 c 0,1.69867 1.144,2.58267 4.14266,3.18933 3.068,0.624 3.96934,1.42134 3.96934,2.912 v 0.0347 c 0,1.62933 -1.456,2.86 -3.72667,2.86 -1.768,0 -3.328,-0.676 -4.55867,-1.872 l -0.27733,0.27733 c 1.3,1.23067 2.94667,1.94134 4.80133,1.94134 z" />
      <path
         inkscape:connector-curvature="0"
         id="path874"
         style="font-size:17.33333397px;letter-spacing:6.35000134px"
         d="m 138.87847,156.21462 h 0.38134 v -11.78666 h 4.38533 v -0.34667 h -9.152 v 0.34667 h 4.38533 z" />
      <path
         inkscape:connector-curvature="0"
         id="path876"
         style="font-size:17.33333397px;letter-spacing:6.35000134px"
         d="m 152.26635,156.21462 h 8.56267 v -0.34666 h -8.18134 v -5.58134 h 7.34934 v -0.34666 h -7.34934 v -5.512 h 8.09467 v -0.34667 h -8.476 z" />
      <path
         inkscape:connector-curvature="0"
         id="path878"
         style="font-size:17.33333397px;letter-spacing:6.35000134px"
         d="m 170.05906,156.21462 h 0.38133 v -11.492 l 5.252,7.488 h 0.0173 l 5.252,-7.488 v 11.492 h 0.38133 v -12.13333 h -0.34667 l -5.28666,7.52267 -5.28667,-7.52267 h -0.364 z" />
      <path
         inkscape:connector-curvature="0"
         id="path880"
         style="font-size:17.33333397px;letter-spacing:6.35000134px"
         d="m 195.32623,156.38796 c 2.56533,0 4.14266,-1.42134 4.14266,-3.224 v -0.0347 c 0,-1.64667 -1.04,-2.6 -4.19466,-3.24133 -2.98134,-0.60667 -3.91734,-1.38667 -3.91734,-2.86 v -0.0347 c 0,-1.42133 1.404,-2.73867 3.536,-2.73867 1.49067,0 2.84267,0.53734 3.91734,1.352 l 0.24266,-0.312 c -1.10933,-0.84933 -2.53066,-1.38666 -4.12533,-1.38666 -2.288,0 -3.952,1.404 -3.952,3.10266 v 0.0347 c 0,1.69867 1.144,2.58267 4.14267,3.18933 3.068,0.624 3.96933,1.42134 3.96933,2.912 v 0.0347 c 0,1.62933 -1.456,2.86 -3.72667,2.86 -1.768,0 -3.328,-0.676 -4.55866,-1.872 l -0.27734,0.27733 c 1.3,1.23067 2.94667,1.94134 4.80134,1.94134 z" />
    </g>
  </g>
</svg>
